<?xml version="1.0" encoding="UTF-8"?>
<svg id="Layer_1" data-name="Layer 1" xmlns="http://www.w3.org/2000/svg" viewBox="0 0 1024 1024">
  <path fill="currentColor" d="M61.33,458.87c6.03,8.04,15.23,12.27,24.56,12.27,6.4,0,12.84-2,18.38-6.13,13.54-10.16,16.3-29.4,6.13-42.96-18.91-25.17-20.04-46.6-3.39-63.63,26.03-26.62,83.22-35.15,130.5-9.69-9.59,37.26-8.18,86.95,16.89,152.79,13.35,35.07,27.32,67.54,41.76,97.78-29.32,114.24-43.72,245.13,3.74,324.7,28.5,47.77,76.6,73.02,139.09,73.02,6.03,0,12.27-.25,18.71-.7,71.22-5.19,104.24-41.45,119.4-70.91,.39-.74,.63-1.53,1-2.27,73.18,38.26,144.98,50.81,207.36,50.81,88.42,0,149.35-26.17,151.91-27.28l11.23-4.91,4.74-11.29c2.47-5.91,59.85-145.8-11.06-309.65-5.77-13.31-12.43-26.32-19.53-39.14,39.49-22.12,62.49-61.81,66.52-116.94,3.99-54.82-9.2-98.95-39.2-131.22-35.52-38.2-93-57.56-170.86-57.56-61.12,0-129.33,12.06-192.85,28.67-24.17-10.76-49.36-21.02-75.72-30.79l-6.13-2.29c-29.22-10.98-78.15-29.32-127.25-29.32-11.21,0-21.82,1.02-31.9,2.9-25.91-47.42-14.15-111.63,16.77-141.83,20.28-19.83,42.57-20.22,68.07-1.04,13.56,10.14,32.78,7.42,42.96-6.13,10.16-13.56,7.4-32.8-6.13-42.96-49.34-36.99-105.96-34.6-147.78,6.24-47.4,46.31-67.7,137.43-30.63,210.47-4.46,3.39-8.75,6.99-12.78,11.02-3.78,3.76-7.48,7.97-11.1,12.53-72.2-37.62-159.15-21.39-201.58,22.06-29.9,30.61-46.07,84.33-1.82,143.38Zm279.44,224.07c13.29-75.21,37.4-152.54,60.44-209.35l1.66-1.66c15.3,27.85,32.25,60.71,48.79,95.82,12.25,25.99,24.17,53.17,35.07,80.59,14.62,36.83,27.3,73.94,35.83,108.76,5.32,21.76,8.83,42.43,10.43,61.71,2.33,27.91,.14,52.45-7.93,71.9-.9,2.15-1.47,4.56-2.52,6.58-7.52,14.6-22.88,34.41-69.32,37.79-49.01,3.62-81.16-9.88-100.65-42.57-27.93-46.83-26.42-126.84-11.8-209.57Zm548.93-152.85c-14.33,7.24-32.94,10.65-56.38,10.65-4.66,0-9.61-.35-14.46-.63-21.45-1.23-44.52-5.05-68.48-10.82-35.46-8.55-72.69-21.1-109.01-35.56-27.85-11.06-55.09-23.11-80.52-35.15-37.07-17.52-70.3-34.9-95.76-48.85l1.15-1.15c54.35-21.96,131.11-46.83,207.1-60.63,36.34-6.58,72.45-10.67,105.84-10.67,60.12,0,102.51,12.78,125.96,37.99,18.18,19.55,25.66,47.34,22.92,84.98-2.58,35.21-14.58,57.81-38.36,69.83Zm-295.37,10.67l-60.26,60.26c-11.72-27.97-24.05-54.82-36.15-79.52l16.87-16.87c24.68,12.04,51.59,24.39,79.54,36.13Zm201.31,58.95l-203.11,203.09c-3.44-30.57-10.67-62.88-20.22-95.43l128.15-128.17c32.64,9.69,64.86,16.99,95.19,20.51Zm-144.12,288.71l236.93-236.93c13.07,31.9,20.63,62.76,24.33,91.34l-167.63,167.63c-29.75-3.09-61.26-9.94-93.63-22.04ZM319.2,324.26c13.95-13.95,32.92-20.71,58.03-20.71,37.97,0,80.36,15.89,105.7,25.4l6.34,2.37c1.39,.51,2.72,1.08,4.11,1.59-41.92,14.64-77.42,29.61-101.71,41.9-5.75,1.49-10.94,4.56-14.93,8.94-4.38,4.01-7.44,9.14-8.96,14.87-11.96,23.92-28.44,63.06-44.54,110.17-3.89-9.51-7.73-19.2-11.53-29.16-27.05-71.08-24.52-123.34,7.48-155.36Z"/>
</svg>